<mxfile host="app.diagrams.net" modified="2023-12-20T15:42:53.686Z" agent="Mozilla/5.0 (Windows NT 10.0; Win64; x64) AppleWebKit/537.36 (KHTML, like Gecko) Chrome/120.0.0.0 Safari/537.36 Edg/120.0.0.0" etag="h3FoXlYoQ3_qXqhd2Cri" version="22.1.11" type="device">
  <diagram name="Trang-1" id="G7mjkxMxQF8GDAocxFWy">
    <mxGraphModel dx="348" dy="590" grid="1" gridSize="10" guides="1" tooltips="1" connect="1" arrows="1" fold="1" page="1" pageScale="1" pageWidth="827" pageHeight="1169" math="0" shadow="0">
      <root>
        <mxCell id="0" />
        <mxCell id="1" parent="0" />
        <mxCell id="KUTGK9OhDXcdtYmHl0j2-1" value="" style="swimlane;startSize=0;" parent="1" vertex="1">
          <mxGeometry x="280" y="90" width="180" height="370" as="geometry" />
        </mxCell>
        <mxCell id="KUTGK9OhDXcdtYmHl0j2-4" value="Thêm bàn" style="ellipse;whiteSpace=wrap;html=1;" parent="KUTGK9OhDXcdtYmHl0j2-1" vertex="1">
          <mxGeometry x="40" y="50" width="100" height="70" as="geometry" />
        </mxCell>
        <mxCell id="KUTGK9OhDXcdtYmHl0j2-5" value="Xóa bàn" style="ellipse;whiteSpace=wrap;html=1;" parent="KUTGK9OhDXcdtYmHl0j2-1" vertex="1">
          <mxGeometry x="40" y="210" width="100" height="70" as="geometry" />
        </mxCell>
        <mxCell id="KUTGK9OhDXcdtYmHl0j2-3" value="Sửa bàn" style="ellipse;whiteSpace=wrap;html=1;" parent="KUTGK9OhDXcdtYmHl0j2-1" vertex="1">
          <mxGeometry x="40" y="130" width="100" height="70" as="geometry" />
        </mxCell>
        <mxCell id="zxkbrOZkq-2tWWHNGrqO-1" value="Tìm kiếm" style="ellipse;whiteSpace=wrap;html=1;" parent="KUTGK9OhDXcdtYmHl0j2-1" vertex="1">
          <mxGeometry x="40" y="290" width="100" height="70" as="geometry" />
        </mxCell>
        <mxCell id="yV9U46kd-4rg1TNfzokf-1" value="Quản lý bàn" style="text;html=1;strokeColor=none;fillColor=none;align=center;verticalAlign=middle;whiteSpace=wrap;rounded=0;" vertex="1" parent="KUTGK9OhDXcdtYmHl0j2-1">
          <mxGeometry x="50" width="80" height="30" as="geometry" />
        </mxCell>
        <mxCell id="KUTGK9OhDXcdtYmHl0j2-6" style="rounded=0;orthogonalLoop=1;jettySize=auto;html=1;exitX=1;exitY=0.3333333333333333;exitDx=0;exitDy=0;exitPerimeter=0;entryX=0;entryY=0.5;entryDx=0;entryDy=0;endArrow=none;endFill=0;" parent="1" source="KUTGK9OhDXcdtYmHl0j2-2" target="KUTGK9OhDXcdtYmHl0j2-4" edge="1">
          <mxGeometry relative="1" as="geometry" />
        </mxCell>
        <mxCell id="KUTGK9OhDXcdtYmHl0j2-7" style="rounded=0;orthogonalLoop=1;jettySize=auto;html=1;exitX=1;exitY=0.3333333333333333;exitDx=0;exitDy=0;exitPerimeter=0;entryX=0;entryY=0.5;entryDx=0;entryDy=0;endArrow=none;endFill=0;" parent="1" source="KUTGK9OhDXcdtYmHl0j2-2" target="KUTGK9OhDXcdtYmHl0j2-3" edge="1">
          <mxGeometry relative="1" as="geometry" />
        </mxCell>
        <mxCell id="KUTGK9OhDXcdtYmHl0j2-8" style="rounded=0;orthogonalLoop=1;jettySize=auto;html=1;exitX=1;exitY=0.3333333333333333;exitDx=0;exitDy=0;exitPerimeter=0;entryX=0;entryY=0.5;entryDx=0;entryDy=0;endArrow=none;endFill=0;" parent="1" source="KUTGK9OhDXcdtYmHl0j2-2" target="KUTGK9OhDXcdtYmHl0j2-5" edge="1">
          <mxGeometry relative="1" as="geometry" />
        </mxCell>
        <mxCell id="zxkbrOZkq-2tWWHNGrqO-2" style="rounded=0;orthogonalLoop=1;jettySize=auto;html=1;exitX=1;exitY=0.3333333333333333;exitDx=0;exitDy=0;exitPerimeter=0;entryX=0;entryY=0.5;entryDx=0;entryDy=0;endArrow=none;endFill=0;" parent="1" source="KUTGK9OhDXcdtYmHl0j2-2" target="zxkbrOZkq-2tWWHNGrqO-1" edge="1">
          <mxGeometry relative="1" as="geometry" />
        </mxCell>
        <mxCell id="KUTGK9OhDXcdtYmHl0j2-2" value="Quản lý" style="shape=umlActor;verticalLabelPosition=bottom;verticalAlign=top;html=1;outlineConnect=0;" parent="1" vertex="1">
          <mxGeometry x="200" y="245" width="30" height="60" as="geometry" />
        </mxCell>
      </root>
    </mxGraphModel>
  </diagram>
</mxfile>
